# xmcd
#
# Track frame offsets:
#	150
#	15122
#	34598
#	52019
#	74221
#	96892
#	113278
#	130850
#	149307
#
# Disc length: 2201 seconds
#
# Revision: 1
# Processed by: cddbd v1.5.2PL0 Copyright (c) Steve Scherf et al.
# Submitted via: audiograbber 1.83.01
#
DISCID=73089709
DTITLE=Girls, Guns and Glory - Fireworks and Alcohol
DYEAR=2005
DGENRE=Country
TTITLE0=Chasing the Night
TTITLE1=Streets of Laredo
TTITLE2=Beautiful Girls
TTITLE3=Take Those Days Back Revisited
TTITLE4=Cause and Effect
TTITLE5=Corporate Babylon
TTITLE6=The Devil and the Deep Blue Sea
TTITLE7=The Last Ride (of the Broomstick Ponies)
TTITLE8=Anti-Establishment Love Song
EXTD=
EXTT0=
EXTT1=
EXTT2=
EXTT3=
EXTT4=
EXTT5=
EXTT6=
EXTT7=
EXTT8=
PLAYORDER=
